<?xml version="1.0" standalone="no"?>
<!DOCTYPE svg PUBLIC "-//W3C//DTD SVG 20010904//EN"
 "http://www.w3.org/TR/2001/REC-SVG-20010904/DTD/svg10.dtd">
<svg version="1.0" xmlns="http://www.w3.org/2000/svg"
 width="260.000000pt" height="260.000000pt" viewBox="0 0 260.000000 260.000000"
 preserveAspectRatio="xMidYMid meet">
<metadata>
Created by potrace 1.14, written by Peter Selinger 2001-2017
</metadata>
<g transform="translate(0.000000,260.000000) scale(0.100000,-0.100000)"
fill="#000000" stroke="none">
<path d="M0 1968 l0 -632 25 -26 c16 -16 27 -43 31 -72 6 -43 4 -47 -24 -68
l-31 -23 30 -31 c37 -39 36 -50 -3 -86 -27 -25 -29 -31 -18 -45 13 -16 80 -18
80 -3 0 16 26 -16 27 -33 2 -25 -23 -31 -43 -12 -16 16 -16 16 -10 -5 8 -24
-7 -29 -34 -12 -11 7 -17 5 -22 -8 -4 -9 -7 -218 -7 -464 l-1 -448 621 0 c493
0 619 3 613 13 -4 6 -42 57 -84 112 -102 133 -143 195 -230 350 -40 72 -85
148 -100 170 -43 63 -127 236 -145 299 l-17 57 41 83 c22 46 43 95 46 109 4
15 13 31 21 38 11 9 14 6 14 -16 0 -69 65 -187 85 -155 5 7 4 11 -1 8 -5 -3
-15 0 -22 8 -8 9 -9 14 -2 14 6 0 8 4 5 10 -3 6 1 7 9 4 12 -5 16 0 16 17 0
14 4 19 8 13 4 -6 22 -10 40 -8 37 2 80 -16 76 -31 -2 -6 19 -20 47 -32 28
-12 48 -26 45 -31 -3 -5 6 -15 19 -22 23 -12 33 -30 40 -69 1 -9 8 -15 14 -13
6 1 11 -4 11 -12 0 -18 58 -80 83 -89 11 -4 21 -16 24 -27 3 -11 11 -20 18
-20 14 0 45 -58 45 -84 0 -9 -5 -16 -11 -16 -8 0 -7 -5 2 -16 15 -19 73 -13
122 13 45 23 155 112 204 166 34 37 43 55 49 99 6 44 9 49 15 28 7 -26 23
-138 37 -270 8 -72 9 -74 19 -40 l10 35 17 -75 c24 -102 42 -245 57 -449 l13
-171 363 0 363 0 0 193 c0 212 -8 256 -61 358 -37 68 -110 147 -147 155 -29 7
-62 31 -62 46 0 12 48 10 56 -4 4 -7 3 -8 -4 -4 -7 4 -12 2 -12 -3 0 -10 33
-17 55 -11 6 2 26 4 45 4 20 1 53 12 74 24 20 12 42 20 47 17 5 -4 9 352 9
909 l0 916 -1300 0 -1300 0 0 -632z m1404 387 c13 -14 27 -25 32 -25 5 0 22
-7 38 -15 18 -10 32 -12 35 -6 10 15 80 -4 106 -29 27 -25 45 -95 45 -170 0
-27 5 -52 10 -55 6 -3 10 -18 10 -33 1 -28 30 -72 49 -72 17 0 37 -48 25 -60
-5 -5 -56 -11 -112 -13 -83 -3 -106 -8 -123 -23 -12 -10 -24 -17 -27 -14 -12
9 -14 -32 -3 -43 23 -23 12 -38 -26 -35 -27 2 -41 9 -49 25 -6 13 -14 20 -18
16 -4 -4 -5 8 -4 27 2 26 -2 36 -18 45 -12 6 -28 16 -35 22 -17 13 -121 24
-137 14 -16 -10 -1 -27 33 -38 19 -6 31 -18 33 -30 3 -17 -4 -22 -35 -27 -95
-16 -167 -11 -250 19 -82 28 -83 29 -83 62 0 37 11 64 45 104 14 18 22 42 23
75 1 27 7 83 13 124 20 134 70 159 357 178 34 2 46 -2 66 -23z m891 -209 c29
-44 -8 -75 -65 -54 -58 20 -46 78 16 78 24 0 38 -7 49 -24z m-1541 -346 c62
-35 72 -58 56 -123 -6 -23 -10 -67 -7 -97 l3 -55 2 63 c1 34 6 70 11 80 18 33
41 90 41 100 0 16 59 25 75 12 8 -7 22 -10 30 -6 21 8 84 -19 92 -39 4 -12 8
-13 13 -5 9 14 149 15 164 0 7 -7 2 -10 -16 -10 -15 0 -29 -4 -32 -9 -7 -10
66 -27 99 -23 33 3 95 36 95 50 0 6 7 12 15 12 8 0 15 -4 15 -9 0 -21 -13 -41
-26 -41 -17 0 -18 -12 -2 -28 9 -9 9 -18 -1 -38 -6 -15 -10 -28 -8 -30 8 -9
44 54 51 88 5 28 13 39 31 44 26 6 65 -10 65 -29 0 -7 13 -37 29 -68 25 -51
27 -59 16 -86 -13 -31 -59 -50 -71 -31 -7 11 -83 0 -101 -14 -19 -15 -53 1
-54 25 -1 18 -2 19 -6 4 -3 -10 2 -29 11 -42 9 -13 13 -31 10 -40 -10 -25 15
-46 52 -43 30 2 65 -15 53 -26 -2 -2 -45 -6 -96 -8 -78 -5 -92 -3 -97 11 -3 9
-11 24 -18 33 -10 15 -8 22 14 45 25 26 48 71 48 94 0 13 -35 -21 -99 -95 -51
-59 -63 -86 -37 -86 8 0 16 -16 20 -39 7 -43 23 -61 36 -41 6 10 21 8 69 -8
35 -12 63 -17 66 -11 9 14 55 11 61 -5 3 -8 33 -19 69 -26 59 -11 64 -14 70
-42 4 -16 15 -34 26 -41 23 -14 26 -57 4 -57 -8 0 -17 -11 -21 -25 -4 -14 -9
-23 -12 -20 -3 3 -16 -2 -29 -10 -14 -9 -23 -11 -23 -5 0 7 -5 8 -12 3 -17
-10 -32 -11 -39 -1 -3 5 -23 11 -44 13 -22 3 -43 11 -47 18 -4 6 -8 8 -8 4 0
-4 -24 10 -53 32 -52 38 -54 39 -68 20 -11 -16 -15 -17 -21 -4 -8 12 -13 12
-43 -2 -34 -16 -36 -16 -77 7 -24 13 -50 32 -59 42 -9 10 -19 15 -22 12 -3 -3
-8 4 -12 15 -3 12 -11 19 -16 16 -5 -4 -9 -2 -9 3 0 5 -19 22 -42 38 -24 16
-49 37 -56 46 -7 9 -19 24 -28 32 -8 8 -14 17 -13 18 5 7 -24 109 -33 114 -13
8 -20 -1 -20 -29 0 -23 -1 -23 -33 7 -42 41 -59 76 -84 173 -23 90 -27 141 -6
78 l13 -40 3 35 c2 31 3 29 8 -15 l6 -50 8 53 c4 28 12 52 17 52 16 0 50 -58
44 -75 -5 -13 -2 -16 12 -13 26 5 24 18 -11 63 -46 60 -73 85 -90 85 -16 0
-20 12 -8 23 12 13 33 7 87 -23z m1006 -160 c5 -8 10 -25 10 -37 0 -12 6 -24
13 -26 12 -5 -14 -10 -43 -8 -8 0 0 -6 18 -14 36 -17 39 -30 15 -80 -13 -28
-22 -35 -45 -35 -15 0 -28 5 -28 10 0 6 -6 10 -13 10 -21 0 -57 35 -57 56 0
11 -7 28 -15 38 -8 10 -12 23 -9 27 3 5 0 9 -5 9 -6 0 -11 15 -11 34 l0 34 81
-2 c58 -1 83 -5 89 -16z m-280 -148 c0 -5 -18 -18 -41 -30 l-40 -22 3 23 c3
20 13 26 71 36 4 0 7 -3 7 -7z m64 -156 c10 1 15 -3 13 -9 -3 -7 -10 -11 -17
-9 -7 1 -18 -2 -25 -8 -7 -6 -37 -8 -71 -4 -32 3 -80 6 -106 7 -26 1 -53 8
-60 15 -6 6 -8 12 -2 13 39 3 109 11 112 13 1 2 33 -2 71 -9 38 -6 76 -10 85
-9z m204 -9 c23 -35 28 -57 12 -57 -5 0 -12 -10 -15 -23 -7 -27 -36 -47 -75
-52 -26 -4 -27 -2 -20 33 9 49 27 82 45 82 9 0 15 10 15 25 0 34 11 31 38 -8z
m-1300 -398 c-24 -16 -53 -29 -65 -29 -12 0 -23 -4 -25 -8 -4 -10 -211 -92
-233 -92 -19 0 -16 20 6 31 31 16 109 49 116 49 5 0 42 18 83 39 53 28 88 39
118 39 l43 0 -43 -29z m-403 -29 c3 -6 -1 -7 -9 -4 -18 7 -21 14 -7 14 6 0 13
-4 16 -10z"/>
<path d="M1165 1890 c3 -5 11 -10 16 -10 6 0 7 5 4 10 -3 6 -11 10 -16 10 -6
0 -7 -4 -4 -10z"/>
<path d="M691 1594 c0 -11 3 -14 6 -6 3 7 2 16 -1 19 -3 4 -6 -2 -5 -13z"/>
<path d="M1277 594 c-97 -124 -114 -150 -88 -132 12 9 39 40 58 68 l35 52 61
-59 c34 -32 70 -76 80 -98 18 -38 18 -42 1 -75 -14 -28 -19 -68 -22 -193 l-4
-157 185 0 186 0 -16 53 c-23 77 -65 166 -104 217 -71 94 -72 96 -66 186 5 91
5 92 -84 158 -34 24 -40 26 -98 18 -51 -7 -63 -6 -70 6 -7 12 -19 2 -54 -44z"/>
</g>
</svg>
