<svg xmlns="http://www.w3.org/2000/svg" fill-rule="evenodd" height="500" width="500" viewBox="0 0 5.556 5.556" xmlns:v="https://vecta.io/nano"><path fill="#1f1a17" d="M2.778.389a2.38 2.38 0 0 1 1.616.63.39.39 0 0 0-.425.402c-.018.574.686.696.307 1.849l-.314.954-.854-2.515c-.013-.039.002-.061.05-.061h.241c.013 0 .023-.011.023-.024v-.143c0-.013-.01-.024-.023-.024H2.036c-.013-.001-.023.011-.023.024v.143c0 .013.01.024.023.024h.243c.054 0 .069.018.082.053l.351.959-.528 1.594-.867-2.555c-.011-.032.002-.051.033-.051h.277c.013 0 .023-.011.023-.024v-.143c0-.013-.01-.024-.023-.024l-.853.021C1.199.823 1.937.389 2.777.389h0zM4.878 1.64c.184.338.288.726.288 1.137a2.39 2.39 0 0 1-1.242 2.096l.745-2.11c.115-.327.223-.768.209-1.123h0zM3.577 5.029a2.38 2.38 0 0 1-.8.137 2.39 2.39 0 0 1-.695-.103l.736-2.109.758 2.074h0zm-1.822-.092A2.39 2.39 0 0 1 .389 2.778a2.38 2.38 0 0 1 .215-.99l1.152 3.15h0zM2.778.165c1.443 0 2.612 1.17 2.612 2.612S4.22 5.39 2.778 5.39.165 4.22.165 2.778 1.335.165 2.778.165zm0-.165a2.78 2.78 0 0 1 2.778 2.778 2.78 2.78 0 0 1-2.778 2.778A2.78 2.78 0 0 1 0 2.778 2.78 2.78 0 0 1 2.778 0z"/></svg>