<svg xmlns="http://www.w3.org/2000/svg" width="50" height="48" fill="#0868ac" xmlns:v="https://vecta.io/nano"><path d="M3.189 11.357c-4.446 6.326-3.892 14.556-.496 21.278l.249.478.159.303c.031.059.066.117.099.174.058.107.117.209.177.313l.324.55.185.302c.122.196.248.389.376.583l.16.245c.177.262.358.522.545.779.005.007.01.014.016.021.029.041.062.081.092.123a25.59 25.59 0 0 0 .497.654l.187.236.459.558.175.208a29.2 29.2 0 0 0 .639.723c.022.023.03.03.038.04.212.23.43.454.65.678l.208.208.519.504.212.2c.234.218.47.432.711.641l.135.114.646.54.268.211.538.416.288.217.604.429.22.155.061.043c.193.132.39.258.587.384l.254.168.919.557.254.142.689.383c.126.067.255.13.382.195l.494.254.114.054.202.097.782.358.165.074a28.19 28.19 0 0 0 .912.375l.222.086.861.316.108.037c.317.11.637.211.96.311l.232.068c.328.098.652.215.991.277C42.755 51.296 49 34.623 49 34.623c-5.245 6.765-14.556 8.55-23.377 6.563-.334-.075-.658-.178-.984-.273l-.245-.073c-.318-.097-.634-.199-.948-.306l-.13-.046c-.281-.098-.559-.201-.836-.307l-.234-.092a27.5 27.5 0 0 1-.902-.371l-.18-.079-.761-.351-.22-.104c-.198-.096-.394-.197-.589-.297l-.393-.204a22.91 22.91 0 0 1-.706-.392l-.238-.132a36.77 36.77 0 0 1-.919-.557c-.084-.053-.165-.109-.248-.164l-.654-.43c-.072-.048-.14-.099-.211-.147l-.618-.443-.274-.205-.558-.432-.249-.197-.695-.58c-.024-.021-.05-.041-.076-.063a35.17 35.17 0 0 1-.73-.657l-.206-.196-.525-.509-.206-.204c-.219-.222-.434-.446-.644-.674-.01-.012-.021-.022-.032-.034a25.95 25.95 0 0 1-.653-.736l-.171-.201-.47-.575-.172-.213-.543-.715C4.504 23.614 2.744 14.491 6.659 7m9.78-1.225c-3.248 4.709-3.072 11.013-.538 15.994.425.835.902 1.645 1.436 2.416.487.702 1.026 1.539 1.672 2.103.234.26.479.513.729.762.063.065.128.127.192.191.243.237.489.471.745.697.01.008.02.018.03.026a21.93 21.93 0 0 0 .877.732l.197.155a21.39 21.39 0 0 0 .91.669l.026.02c.137.095.276.184.415.276.066.044.13.09.197.131a18.39 18.39 0 0 0 .674.416c.032.02.064.037.095.056l.596.335c.07.04.141.074.212.111l.417.217c.021.011.043.02.063.029a21.32 21.32 0 0 0 .869.408c.063.028.128.053.192.08a22.6 22.6 0 0 0 .713.292l.305.113a22.42 22.42 0 0 0 .654.229l.296.095c.312.098.621.221.946.276C46.129 35.405 50 22.396 50 22.396c-3.49 5.064-10.248 7.481-17.459 5.595a21.59 21.59 0 0 1-.95-.277c-.096-.029-.19-.061-.286-.093-.223-.073-.445-.15-.664-.231l-.3-.113a21.93 21.93 0 0 1-.715-.29l-.193-.082a20.51 20.51 0 0 1-.875-.409l-.439-.225-.253-.131a21.47 21.47 0 0 1-.555-.315l-.133-.076c-.227-.134-.45-.272-.672-.413-.068-.044-.134-.091-.203-.136l-.435-.29c-.309-.215-.61-.44-.906-.668l-.204-.162c-3.157-2.512-5.659-5.943-6.849-9.835-1.247-4.036-.978-8.566 1.182-12.243m9.531-.048c-1.905 2.787-2.092 6.248-.77 9.326 1.394 3.267 4.25 5.83 7.583 7.045.137.051.275.096.414.143l.183.057c.196.061.391.133.594.17 9.211 1.769 11.71-4.699 12.375-5.651-2.189 3.133-5.867 3.885-10.379 2.796-.357-.086-.748-.214-1.092-.335a13.37 13.37 0 0 1-1.297-.536 13.42 13.42 0 0 1-2.273-1.379C29.921 10.544 27.412 4.733 30.047 0"/></svg>