<svg xmlns="http://www.w3.org/2000/svg" width="184.3" height="125.5" viewBox="-7.929 -7.929 72.72 49.53" xmlns:v="https://vecta.io/nano"><path d="M21.72 24.79c-1.143 6.217-2.65 10.74-4.521 13.55-1.458 2.172-3.055 3.258-4.794 3.258-.464 0-1.035-.14-1.714-.418v-1.499c.331.049.72.075 1.167.075.811 0 1.465-.225 1.963-.673.596-.547.894-1.161.894-1.842 0-.465-.232-1.42-.696-2.864l-3.08-9.589h2.757l2.21 7.172c.497 1.628.704 2.765.621 3.413 1.209-3.238 2.054-6.766 2.534-10.58h2.658m-12.17 12.4H6.743c-.099-4.749-.372-9.215-.819-13.4h-.025l-4.273 13.4H-.511l-4.247-13.4h-.025c-.315 4.018-.513 8.483-.596 13.4h-2.559c.165-5.978.579-11.58 1.241-16.81h3.478L.83 32.732h.025l4.074-12.35h3.328c.729 6.126 1.159 11.73 1.291 16.81" fill="#00758f"/><path d="M59.08 37.19h-7.973V20.38h2.683v14.74h5.29v2.068m-20.05-3.363c-.679-1.096-1.019-2.854-1.019-5.279 0-4.233 1.284-6.351 3.85-6.351 1.342 0 2.327.507 2.956 1.519.678 1.096 1.018 2.84 1.018 5.231 0 4.267-1.284 6.402-3.85 6.402-1.341 0-2.327-.506-2.955-1.52m9.985 3.768l-3.082-1.524c.274-.226.535-.469.771-.751 1.309-1.542 1.963-3.825 1.963-6.848 0-5.562-2.178-8.344-6.533-8.344-2.136 0-3.801.705-4.993 2.118-1.309 1.544-1.963 3.819-1.963 6.824 0 2.955.579 5.123 1.738 6.5 1.056 1.245 2.653 1.868 4.792 1.868.798 0 1.53-.098 2.195-.295l4.013 2.342 1.094-1.89m-15-5.065c0 1.426-.522 2.596-1.564 3.512s-2.443 1.369-4.196 1.369c-1.64 0-3.229-.526-4.769-1.57l.72-1.444c1.325.664 2.524.996 3.6.996 1.01 0 1.8-.225 2.372-.67a2.29 2.29 0 0 0 .912-1.867c0-.998-.694-1.851-1.968-2.567l-3.526-1.998c-1.273-.931-1.912-1.931-1.912-3.577 0-1.362.476-2.463 1.427-3.3s2.183-1.259 3.689-1.259c1.557 0 2.972.416 4.247 1.247l-.648 1.443c-1.091-.464-2.166-.696-3.227-.696-.86 0-1.524.207-1.986.624s-.752.945-.752 1.593c0 .996.709 1.859 2.019 2.589 1.191.647 3.599 2.025 3.599 2.025 1.31.93 1.963 1.921 1.963 3.554m26.98 4.656h.444v-1.71h.582v-.349h-1.631v.349h.604zm3.383 0h.419v-2.06h-.63l-.513 1.404-.558-1.404h-.607v2.06h.397v-1.568h.023l.585 1.568h.302l.584-1.568v1.568" fill="#f29111"/><path d="M36.78-7.929c-.709-.011-1.327.257-1.646 1.042-.547 1.321.81 2.62 1.277 3.291.344.467.79.996 1.032 1.523.142.345.183.712.325 1.077l1.053 2.723c.222.427.465.874.749 1.258.164.225.446.325.507.692-.283.406-.305 1.015-.467 1.524-.729 2.295-.446 5.139.588 6.825.323.508 1.094 1.625 2.128 1.198.912-.365.709-1.523.972-2.538.061-.245.02-.406.141-.569v.041l.831 1.686c.629.994 1.722 2.03 2.634 2.72.485.367.87.996 1.478 1.22v-.061h-.04c-.122-.182-.304-.264-.466-.405-.364-.366-.769-.813-1.053-1.219-.85-1.137-1.601-2.397-2.268-3.697-.325-.631-.608-1.321-.872-1.95-.121-.243-.121-.609-.324-.731-.305.446-.749.833-.972 1.379-.385.874-.425 1.951-.568 3.068-.081.021-.04 0-.081.041-.648-.162-.87-.833-1.114-1.4-.608-1.444-.71-3.76-.182-5.425.141-.426.751-1.766.507-2.173-.123-.388-.527-.609-.75-.915-.263-.386-.548-.872-.728-1.3-.486-1.137-.731-2.397-1.256-3.534-.243-.529-.67-1.077-1.013-1.564-.386-.549-.81-.934-1.115-1.584-.1-.224-.242-.59-.081-.833.04-.163.122-.224.284-.265.262-.223 1.012.06 1.275.182.75.304 1.378.59 2.005 1.015.284.204.588.59.952.692h.426c.648.141 1.378.039 1.986.223 1.073.345 2.045.853 2.917 1.401 2.653 1.686 4.841 4.084 6.319 6.947.244.467.346.893.568 1.38l1.378 2.987c.425.955.831 1.929 1.439 2.722.303.426 1.519.649 2.066.873.404.182 1.033.345 1.398.568l2.025 1.382c.323.244 1.336.751 1.397 1.158h0c-1.621-.041-2.877.121-3.93.569-.304.122-.79.122-.831.508.163.162.183.426.326.651.242.406.667.954 1.053 1.239l1.297.933c.789.49 1.681.773 2.45 1.26.447.284.891.649 1.338.955.222.162.363.427.647.527v-.062c-.143-.182-.182-.446-.323-.65l-.608-.588c-.588-.792-1.318-1.482-2.106-2.051-.649-.448-2.068-1.058-2.33-1.807l-.041-.041c.446-.041.974-.204 1.399-.327.688-.182 1.316-.141 2.025-.323l.974-.284v-.184c-.367-.365-.629-.853-1.013-1.198-1.032-.893-2.168-1.766-3.343-2.499-.629-.406-1.439-.669-2.108-1.015-.242-.122-.647-.182-.789-.386-.365-.447-.568-1.035-.831-1.564l-1.661-3.535c-.364-.792-.587-1.583-1.033-2.315-2.088-3.454-4.356-5.545-7.84-7.597-.75-.427-1.641-.609-2.592-.833l-1.52-.081c-.325-.143-.65-.529-.933-.712-.722-.457-2.156-1.247-3.337-1.265zm4.998 5.021c-.344 0-.586.042-.831.102v.041h.04c.164.324.448.55.648.833.163.325.305.649.467.974.02-.02.039-.041.039-.041.286-.202.428-.527.428-1.015-.123-.143-.142-.284-.244-.427-.121-.203-.385-.304-.547-.467z" fill="#00758f"/></svg>